. 
 
http://www.torrenting.com          :     Once & For all ;)


               www . Torrenting . Com 

(((((((((((((= Enjoy No RAR releases =))))))))))))))))))))


...................................NFO:....................................

. 

                  
                                                  
                               
                                           
                   
                    
                         
                        
                      
                   
                   
                       
                           
                           
                                
                                       
                                    
                              SINCE 2011 
  



[b][size=4][color=red]i[/color][color=grey]N[/color][color=red]i[/color][color=grey]T[/color][color=red]i[/color][color=grey]ALan[/color][color=blue]I[/color][color=grey]me[/color] Presents............[/size][/b]

[center][size=5][color=darkorange]Escaflowne The Movie[/color][/size]
[img]http://www.pix2links.com/image/i21hf.png[/img][/center]


[img]http://www.pix2links.com/images/13099716104153237347.png[/img]

[b][color=darkorange]General[/color]
[color=blue]Encoder                          :unsentletter [iNiTiALanIme]
Language                         : English[/color]
Complete name                    : Escaflowne The Movie [iNiTiALanIme ENCODE]\Escaflowne The Movie.avi
Format                           : AVI
Format/Info                      : Audio Video Interleave
Format profile                   : OpenDML
File size                        : 1.76 GiB
Duration                         : 1h 35mn
Overall bit rate                 : 2 645 Kbps
Movie name                       : Escaflowne
Writing application              : Lavf52.78.4
Original source form/Name        : Esca

[color=darkorange]Video[/color]
ID                               : 0
Format                           : MPEG-4 Visual
Format profile                   : Advanced Simple@L5
Format settings, BVOP            : Yes
Format settings, QPel            : No
Format settings, GMC             : No warppoints
Format settings, Matrix          : Default (H.263)
Muxing mode                      : Packed bitstream
Codec ID                         : XVID
Codec ID/Hint                    : XviD
Duration                         : 1h 35mn
Bit rate                         : 2 186 Kbps
Width                            : 1 680 pixels
Height                           : 928 pixels
Display aspect ratio             : 16:9
Frame rate                       : 23.976 fps
Color space                      : YUV
Chroma subsampling               : 4:2:0
Bit depth                        : 8 bits
Scan type                        : Progressive
Bits/(Pixel*Frame)               : 0.058
Stream size                      : 1.45 GiB (83%)
Writing library                  : XviD 1.2.1 (UTC 2008-12-04)

[color=darkorange]Audio[/color]
ID                               : 1
Format                           : AC-3
Format/Info                      : Audio Coding 3
Mode extension                   : CM (complete main)
Codec ID                         : 2000
Duration                         : 1h 35mn
Bit rate mode                    : Constant
Bit rate                         : 448 Kbps
Channel(s)                       : 6 channels
Channel positions                : Front: L C R, Side: L R, LFE
Sampling rate                    : 48.0 KHz
Bit depth                        : 16 bits
Stream size                      : 305 MiB (17%)
Alignment                        : Aligned on interleaves
Interleave, duration             : 32 ms (0.77 video frame)
Interleave, preload duration     : 32 ms[/b]


[img]http://www.pix2links.com/images/80034587597690082617.png[/img]

High school student Hitomi Kanzaki, depressed and despondent, wishes to disappear from her world. Her wishes are heard in the alternate world of Gaea where a battle for absolute control is raging! Magically, Hitomi is suddenly transported to this other world and is bestowed with the power to decide its ultimate fate!


[img]http://www.pix2links.com/images/55005844016593244392.png[/img]

 Maaya Sakamoto ...  Hitomi Kanzaki 
 Tomokazu Seki ...  Van 
 Jji Nakata ...  Folken 
 Mayumi Iizuka ...  Yukari / Sora 
 Minami Takayama ...  Dilandau 
 Kji Tsujitani ...  Jajuka 
 Shinichir Miki ...  Allen 
 Ikue Ootani ...  Merle 
 Trevor Devall ...  Shesta (voice: English version) 
 Brian Dobson ...  Nukushi (voice: English version) 
 Michael Dobson ...  Dryden (voice: English version) 
 Paul Dobson ...  Folken (voice: English version) 
 Brian Drummond ...  Allen (voice: English version) 
 Andrew Francis ...  Dilandau (voice: English version) 
 Nobuyuki Hiyama ...  Oruto 
 Willow Johnson ...  Yukari (voice: English version) 
 Yoshiko Kamei ...  Van 
 Terry Klassen ...  Mole Man (voice: English version) 
 Hisako Kyda ...  Old woman (as Naoko Kyoda) 
 Jocelyne Loewen ...  Merle (voice: English version) 
 Scott McNeil ...  Jajuka (voice: English version) 
 Kirby Morrow ...  Van (voice: English version) 
 Richard Newman ...  Black Dragon Clan Captain, Adon Chief, Pyle, Van's Father (voice: English version) 
 Ward Perry ...  Gaddes (voice: English version) 
 Kelly Sheridan ...  Hitomi (voice: English version) 
 Venus Terzo ...  Millerna (voice: English version) 
 Kappei Yamaguchi ...  Shesta 
 Sylvia Zaradic ...  Sora (voice: English version) 


[img]http://www.pix2links.com/images/30216879873266717110.png[/img]



[img]http://www.pix2links.com/images/02624213968635483899.png[/img]

[img]http://www.pix2links.com/image/fRlh6.png[/img]
[img]http://www.pix2links.com/image/aTdH7.png[/img]
[img]http://www.pix2links.com/image/BIWyP.png[/img]
[img]http://www.pix2links.com/image/j2RzE.png[/img]
[img]http://www.pix2links.com/image/IwePz.png[/img]
[img]http://www.pix2links.com/image/GJef9.png[/img]
[img]http://www.pix2links.com/image/T2dlp.png[/img]
[img]http://www.pix2links.com/image/DTc9k.png[/img]
[img]http://www.pix2links.com/image/O8Fso.png[/img]
[img]http://www.pix2links.com/image/gKZfD.png[/img]



[img]http://www.pix2links.com/images/88091215862305605503.png[/img]

[color=green]all encodes by unsentletter are done in a generic format to work with **XBOX360**, PS3, **Some Media Players**, Android and Symbian. 
**tested streaming to XBOX360 & Media Player using Vuze Transcoder and Wild Media Server... For best results I recomend Vuze Transcoder** [/color]


[b][size=4][color=red]i[/color][color=grey]N[/color][color=red]i[/color][color=grey]T[/color][color=red]i[/color][color=grey]ALan[/color][color=blue]I[/color][color=grey]me[/color][/size][/b] [color=darkorange]gives greets to[/color][color=blue]unsentletter, bigspawn, jaiwalla, amartis, paranoid53, DiVERSiTY RG, BHRG, PRESTiGE RG, all anime groups and fansub groups, all the staff at our upload sites & all the people who make p2p what is[/color]
[color=red]Remember p[/color][color=blue]2[/color][color=red]p is about more than free movies and music its a community be involved!! Dont Hit and Run !! Seed back what you leech!![/color]


[img]http://www.shareimage.ro/images/64f6exuff3cu5kqt85ox.png[/img]


[b][size=4][color=red]i[/color][color=grey]N[/color][color=red]i[/color][color=grey]T[/color][color=red]i[/color][color=grey]ALan[/color][color=blue]I[/color][color=grey]me[/color][/size][/b][color=darkorange] Is looking for members. Have you got something to offer? DO you want to be part of our team?  Wanted -anime sources- encoders - seedbox's anything else you may have to offer -  contact us at[/color][color=cyan] initialanime@yahoo.com[/color]




INITIALANIME 2011